<?xml version="1.0" standalone="no"?>
<!DOCTYPE svg PUBLIC "-//W3C//DTD SVG 20010904//EN"
 "http://www.w3.org/TR/2001/REC-SVG-20010904/DTD/svg10.dtd">
<svg version="1.0" xmlns="http://www.w3.org/2000/svg"
 width="100.000000pt" height="100.000000pt" viewBox="0 0 100.000000 100.000000"
 preserveAspectRatio="xMidYMid meet">

<g transform="translate(0.000000,100.000000) scale(0.100000,-0.100000)"
fill="#000000" stroke="none">
<path d="M461 765 c-18 -8 -59 -15 -90 -15 -31 0 -62 -5 -69 -12 -17 -17 -17
-469 0 -486 17 -17 369 -17 386 0 8 8 12 57 12 156 l0 145 35 39 c30 33 34 42
24 59 -8 16 -17 19 -35 15 -22 -6 -24 -3 -24 27 0 45 -15 57 -76 57 -28 0 -68
7 -87 15 -43 18 -34 18 -76 0z m90 -21 c22 -11 29 -21 27 -37 -3 -20 -8 -22
-78 -22 -70 0 -75 2 -78 22 -2 15 5 26 25 37 36 20 67 20 104 0z m-141 -24 c0
-5 -18 -10 -40 -10 l-40 0 0 -210 0 -210 132 0 132 0 33 32 c32 31 33 35 33
109 0 43 5 81 10 84 6 4 10 -40 10 -124 l0 -131 -185 0 -185 0 0 235 0 235 50
0 c28 0 50 -4 50 -10z m270 -34 c0 -25 -4 -48 -10 -51 -6 -4 -10 10 -10 34 0
40 -1 41 -35 41 -19 0 -35 5 -35 10 0 6 20 10 45 10 l45 0 0 -44z m-266 -1 c8
-22 161 -22 174 1 5 9 18 14 33 12 21 -3 24 -9 27 -47 3 -41 0 -46 -55 -105
-54 -56 -93 -119 -81 -132 10 -9 63 20 101 55 l37 35 0 -67 0 -67 -35 0 c-33
0 -35 -2 -35 -35 l0 -36 -117 3 -118 3 -3 185 c-1 101 0 190 2 197 7 18 63 16
70 -2z m336 -51 c0 -14 -3 -14 -15 -4 -8 7 -15 14 -15 16 0 2 7 4 15 4 8 0 15
-7 15 -16z m-31 -17 c6 -8 8 -17 4 -20 -7 -8 -33 11 -33 24 0 13 16 11 29 -4z
m-73 -96 c-54 -54 -86 -68 -86 -38 0 6 26 37 57 69 51 52 59 56 72 43 14 -13
9 -22 -43 -74z m-79 -68 c2 -6 -5 -13 -17 -16 -22 -6 -23 -5 -14 18 7 17 25
16 31 -2z m63 -96 c0 -2 -9 -12 -20 -22 -19 -18 -20 -17 -20 3 0 15 6 22 20
22 11 0 20 -2 20 -3z"/>
<path d="M490 740 c0 -5 5 -10 10 -10 6 0 10 5 10 10 0 6 -4 10 -10 10 -5 0
-10 -4 -10 -10z"/>
</g>
</svg>
